<svg width="48" height="48" viewBox="0 0 48 48" fill="none" xmlns="http://www.w3.org/2000/svg">
<rect x="0.5" y="0.5" width="47" height="47" rx="23.5" stroke="#EAEAEA"/>
<path d="M18.86 30.5L24.692 24.362C24.992 24.038 25.25 23.726 25.466 23.426C25.682 23.126 25.844 22.826 25.952 22.526C26.06 22.226 26.114 21.908 26.114 21.572C26.114 21.332 26.066 21.098 25.97 20.87C25.886 20.63 25.748 20.414 25.556 20.222C25.376 20.03 25.154 19.88 24.89 19.772C24.626 19.652 24.32 19.592 23.972 19.592C23.492 19.592 23.078 19.706 22.73 19.934C22.382 20.15 22.112 20.468 21.92 20.888C21.74 21.308 21.65 21.794 21.65 22.346H19.544C19.544 21.446 19.712 20.648 20.048 19.952C20.396 19.244 20.9 18.692 21.56 18.296C22.232 17.888 23.048 17.684 24.008 17.684C24.74 17.684 25.376 17.804 25.916 18.044C26.456 18.272 26.9 18.572 27.248 18.944C27.608 19.316 27.872 19.724 28.04 20.168C28.22 20.612 28.31 21.044 28.31 21.464C28.31 22.124 28.148 22.76 27.824 23.372C27.512 23.984 27.098 24.53 26.582 25.01L23 28.52H28.472V30.5H18.86Z" fill="black"/>
</svg>
