<svg width="48" height="48" viewBox="0 0 48 48" fill="none" xmlns="http://www.w3.org/2000/svg">
<rect x="0.5" y="0.5" width="47" height="47" rx="23.5" stroke="#EAEAEA"/>
<path d="M23.216 24.326V23.192C23.6 23.192 23.942 23.144 24.242 23.048C24.542 22.94 24.794 22.796 24.998 22.616C25.214 22.436 25.376 22.226 25.484 21.986C25.604 21.734 25.664 21.476 25.664 21.212C25.664 20.876 25.598 20.582 25.466 20.33C25.334 20.066 25.142 19.862 24.89 19.718C24.638 19.574 24.326 19.502 23.954 19.502C23.402 19.502 22.94 19.67 22.568 20.006C22.208 20.33 22.028 20.744 22.028 21.248H20.03C20.03 20.552 20.192 19.94 20.516 19.412C20.852 18.884 21.314 18.47 21.902 18.17C22.49 17.858 23.168 17.702 23.936 17.702C24.752 17.702 25.448 17.858 26.024 18.17C26.6 18.482 27.038 18.896 27.338 19.412C27.65 19.916 27.806 20.48 27.806 21.104C27.806 21.74 27.608 22.304 27.212 22.796C26.816 23.288 26.27 23.666 25.574 23.93C24.89 24.194 24.104 24.326 23.216 24.326ZM23.846 30.716C23.174 30.716 22.568 30.62 22.028 30.428C21.488 30.224 21.032 29.948 20.66 29.6C20.288 29.24 20 28.832 19.796 28.376C19.592 27.908 19.49 27.416 19.49 26.9H21.614C21.614 27.308 21.71 27.662 21.902 27.962C22.106 28.25 22.382 28.478 22.73 28.646C23.078 28.802 23.462 28.88 23.882 28.88C24.314 28.88 24.686 28.802 24.998 28.646C25.322 28.49 25.574 28.268 25.754 27.98C25.934 27.68 26.024 27.32 26.024 26.9C26.024 26.564 25.958 26.264 25.826 26C25.694 25.736 25.502 25.514 25.25 25.334C25.01 25.154 24.716 25.016 24.368 24.92C24.02 24.824 23.636 24.776 23.216 24.776V23.57C23.912 23.57 24.56 23.642 25.16 23.786C25.76 23.918 26.282 24.128 26.726 24.416C27.182 24.692 27.536 25.058 27.788 25.514C28.04 25.958 28.166 26.498 28.166 27.134C28.166 27.842 27.986 28.466 27.626 29.006C27.266 29.546 26.762 29.966 26.114 30.266C25.466 30.566 24.71 30.716 23.846 30.716Z" fill="black"/>
</svg>
