<svg width="29" height="27" viewBox="0 0 29 27" fill="none" xmlns="http://www.w3.org/2000/svg">
<path d="M26.4384 3.46589C26.4367 3.22922 26.3992 2.98839 26.3417 2.75839C25.9592 1.21172 24.6817 0.229221 23.0292 0.221721C21.0434 0.213387 19.0584 0.220054 17.0726 0.220054C12.6959 0.220054 8.32006 0.215887 3.9434 0.221721C1.93673 0.224221 0.493397 1.64339 0.49173 3.61505C0.48673 9.56255 0.488397 15.5101 0.49423 21.4576C0.49423 21.7351 0.52423 22.0201 0.590063 22.2892C0.95923 23.8109 2.23173 24.8267 3.8334 24.8326C7.6484 24.8476 11.4634 24.8376 15.2792 24.8376C15.3401 24.8376 15.4017 24.8284 15.5117 24.8201C15.5117 24.7151 15.5176 24.6334 15.5109 24.5534C15.4276 23.5192 15.7284 22.5992 16.2542 21.7117C17.5026 19.6026 18.7059 17.4667 19.9434 15.3509C20.2609 14.8067 20.5751 14.2784 20.4609 13.6126C20.4584 13.5959 20.4751 13.5759 20.4967 13.5234C20.9942 13.6851 21.1301 13.2892 21.3151 12.9617C21.3609 12.8809 21.4076 12.8001 21.4542 12.7184C21.6742 12.3351 21.8942 11.9526 22.1434 11.5201H20.4792V7.55172H24.4367C24.4451 7.71339 24.4517 7.86089 24.4584 7.99005C24.7892 7.86839 25.0901 7.71839 25.4084 7.65172C25.7367 7.58339 26.0809 7.59755 26.4351 7.57422C26.4384 7.52755 26.4442 7.47755 26.4442 7.42755C26.4442 6.10672 26.4476 4.78589 26.4384 3.46589ZM6.45506 22.8209C5.48506 22.8209 4.5209 22.8534 3.5609 22.8084C3.01923 22.7826 2.53756 22.2542 2.5059 21.6934C2.4659 20.9817 2.4959 20.2651 2.4959 19.5234H6.45506V22.8209ZM6.45673 17.5009H2.50423V13.5426H6.45673V17.5009ZM6.4634 11.5059H2.5084V7.55089H6.4634V11.5059ZM6.4634 5.52255H2.48673V4.86089C2.48673 4.41422 2.47923 3.96755 2.48923 3.52089C2.50256 2.88755 2.9584 2.28339 3.5584 2.25089C4.51923 2.19922 5.48423 2.23672 6.4634 2.23672V5.52255ZM17.0167 14.0851C15.6842 14.8492 14.3559 15.6192 13.0251 16.3876C12.6659 16.5951 12.3067 16.8042 11.9467 17.0101C10.8542 17.6342 9.80256 17.0317 9.7984 15.7784C9.79506 14.8017 9.79756 13.8251 9.79756 12.8476C9.79756 11.8817 9.7959 10.9151 9.7984 9.94839C9.80173 8.68922 10.8534 8.08505 11.9434 8.71339C13.6426 9.69339 15.3409 10.6759 17.0409 11.6542C17.4967 11.9167 17.7767 12.2884 17.7876 12.8292C17.7984 13.4101 17.5059 13.8042 17.0167 14.0851ZM24.4484 5.51422H20.4667V2.23922C20.5567 2.23172 20.6451 2.21755 20.7334 2.21755C21.4917 2.21589 22.2501 2.21339 23.0084 2.21755C23.9092 2.22255 24.4442 2.75672 24.4476 3.65089C24.4501 4.26422 24.4484 4.87672 24.4484 5.51422Z" fill="#FF782D"/>
<path d="M23.5833 11.6951C21.5475 15.2226 19.5225 18.7309 17.4858 22.2592C18.6558 22.9342 19.7917 23.5901 20.9458 24.2559C22.9867 20.7209 25.0117 17.2126 27.0433 13.6917C25.87 13.0142 24.74 12.3626 23.5833 11.6951ZM23.735 16.7301C23.5433 17.0409 23.1608 17.1001 22.8558 16.9159C22.5675 16.7409 22.4375 16.3826 22.6033 16.0759C22.9383 15.4551 23.2892 14.8417 23.6667 14.2459C23.7642 14.0926 23.9842 14.0159 24.1483 13.9042C24.6758 13.9542 25.0217 14.4551 24.7925 14.8976C24.4675 15.5234 24.1058 16.1309 23.735 16.7301Z" fill="#FF782D"/>
<path d="M26.4442 21.4117C26.4375 23.385 25.03 24.8084 23.06 24.8375C22.7809 24.8409 22.5017 24.8375 22.145 24.8375C22.5392 24.155 22.8984 23.5267 23.2675 22.905C23.3025 22.8467 23.4 22.8167 23.4742 22.79C24.1184 22.5634 24.4625 22.1134 24.44 21.4309C24.4267 21.0184 24.5334 20.6717 24.7442 20.3217C25.3042 19.3909 25.8367 18.4425 26.4217 17.4292C26.4325 17.595 26.4442 17.6809 26.4442 17.7667C26.445 18.9817 26.4475 20.1967 26.4442 21.4117Z" fill="#FF782D"/>
<path d="M28.296 11.5101C28.1235 11.851 27.9185 12.1751 27.7102 12.5385C26.541 11.8643 25.4043 11.2085 24.2468 10.541C24.471 10.161 24.6602 9.79096 24.8943 9.45346C25.2643 8.92096 25.9743 8.75679 26.5585 9.06179C26.9902 9.28679 27.4127 9.53096 27.8235 9.79179C28.416 10.1668 28.6127 10.886 28.296 11.5101Z" fill="#FF782D"/>
<path d="M20.1967 25.3634C20.0009 25.5067 19.8534 25.6376 19.6859 25.7334C19.0917 26.0734 18.4951 26.4092 17.8917 26.7326C17.4392 26.9759 16.9209 26.7634 16.8926 26.2834C16.8434 25.4351 16.8634 24.5826 16.8584 23.7309C16.8584 23.6617 16.8926 23.5909 16.9234 23.4734C18.0234 24.1084 19.0876 24.7234 20.1967 25.3634Z" fill="#FF782D"/>
</svg>
