<svg width="48" height="48" viewBox="0 0 48 48" fill="none" xmlns="http://www.w3.org/2000/svg">
<rect x="1" y="1" width="46" height="46" rx="23" stroke="#FF782D" stroke-width="2"/>
<path fill-rule="evenodd" clip-rule="evenodd" d="M23.1667 17.3334C19.9451 17.3334 17.3334 19.9451 17.3334 23.1667C17.3334 26.3884 19.9451 29.0001 23.1667 29.0001C26.3884 29.0001 29.0001 26.3884 29.0001 23.1667C29.0001 19.9451 26.3884 17.3334 23.1667 17.3334ZM15.6667 23.1667C15.6667 19.0246 19.0246 15.6667 23.1667 15.6667C27.3089 15.6667 30.6667 19.0246 30.6667 23.1667C30.6667 27.3089 27.3089 30.6667 23.1667 30.6667C19.0246 30.6667 15.6667 27.3089 15.6667 23.1667Z" fill="#FF782D"/>
<path fill-rule="evenodd" clip-rule="evenodd" d="M27.2858 27.2858C27.6113 26.9604 28.1389 26.9604 28.4643 27.2858L32.0893 30.9108C32.4148 31.2363 32.4148 31.7639 32.0893 32.0893C31.7639 32.4148 31.2363 32.4148 30.9108 32.0893L27.2858 28.4643C26.9604 28.1389 26.9604 27.6113 27.2858 27.2858Z" fill="#FF782D"/>
</svg>
