<svg width="120" height="120" viewBox="0 0 120 120" fill="none" xmlns="http://www.w3.org/2000/svg">
<rect width="120" height="120" rx="60" fill="white"/>
<path d="M76.6841 68.1127C76.6639 68.1044 76.6435 68.0969 76.623 68.0899C74.6387 67.3529 73.0578 67.1134 72.8536 67.0661C72.7158 66.6204 72.4842 66.1981 72.158 65.8319C70.5814 64.063 68.6904 63.0891 67.6672 62.6542V61.3641C69.9021 59.7579 71.4688 57.6507 72.1251 54.4501H73.3773C75.3255 54.4501 76.9107 52.8651 76.9107 50.9169V48.7874C76.9107 47.2057 75.8658 45.8633 74.4277 45.4143V42.3267C74.8549 42.038 75.1493 41.5846 75.2358 41.0756L76.0081 36.5341L80.7077 34.7501V36.2908C79.8459 36.4161 79.1562 37.1047 79.053 37.9929L78.4965 42.7908C78.363 43.9439 79.2639 44.9643 80.4326 44.9643H83.0918C84.2528 44.9643 85.1627 43.9516 85.028 42.7905L84.4715 37.9929C84.3684 37.1049 83.6787 36.4161 82.8168 36.2908V32.9812C82.8168 32.9799 82.8169 32.9788 82.8169 32.9775C82.8168 32.3873 82.4602 31.8707 81.9085 31.6614L76.1378 29.4709C75.5929 29.2639 74.9841 29.5381 74.7774 30.0826C74.5707 30.6273 74.8446 31.2363 75.3891 31.443L79.4329 32.9779L75.169 34.5965C75.0141 34.4978 74.8429 34.4193 74.657 34.3677C64.8808 31.6566 55.3763 31.6569 45.6009 34.3677C45.415 34.4192 45.2437 34.4978 45.0888 34.5965L40.8249 32.9779L57.7855 26.5397C59.2964 25.966 60.9613 25.9658 62.4727 26.5397L70.7735 29.6907C71.3184 29.8978 71.9271 29.6235 72.1339 29.079C72.3406 28.5343 72.0667 27.9253 71.5222 27.7186L63.2214 24.5677C61.227 23.8107 59.0309 23.8107 57.0368 24.5677L38.3497 31.6613C37.7978 31.8707 37.4412 32.3873 37.4412 32.9775C37.441 33.5677 37.7975 34.0847 38.3496 34.2943L44.2501 36.5341L45.0225 41.0754C45.109 41.5845 45.4035 42.038 45.8307 42.3266V45.4134C44.3937 45.8617 43.3477 47.2047 43.3477 48.7873V50.9168C43.3477 52.8648 44.9327 54.45 46.881 54.45H48.1336C48.736 57.4702 50.1776 59.5506 52.3332 61.1738V62.6542C51.3099 63.089 49.4189 64.0631 47.8426 65.8319C47.5164 66.1979 47.2848 66.6202 47.147 67.066C47.0965 67.0777 45.0121 67.4194 43.3161 68.1127C35.088 71.1978 29.4199 79.1332 29.4199 88.1592V90.619C29.4199 93.5861 31.8339 96 34.8009 96H85.1995C88.1666 96 90.5805 93.5861 90.5805 90.619V88.1592C90.5805 79.1329 84.9124 71.1976 76.6841 68.1127ZM82.3928 38.3779L82.912 42.855H80.6126L81.1318 38.3779H82.3928ZM68.1807 65.2802C68.9379 65.7316 69.8126 66.371 70.583 67.2353C70.9542 67.6521 70.9932 68.2624 70.6936 68.7127C70.6934 68.7133 70.6931 68.7138 70.6927 68.7144C70.69 68.7183 70.6875 68.7223 70.6849 68.7264L66.5313 74.9285C66.5311 74.9288 66.5309 74.9291 66.5307 74.9293C66.1731 75.4633 65.466 75.6146 64.9215 75.2741C63.9169 74.6464 62.3781 73.6849 61.7638 73.3012L66.5448 69.0713C67.6415 68.1007 68.221 66.6973 68.1807 65.2802ZM64.8518 77.4912C64.5061 78.0328 64.004 78.8197 63.2747 79.9627L62.5969 78.0042L63.4478 76.8404C63.6784 76.967 64.0995 77.326 64.8518 77.4912ZM65.8898 64.4328C66.3045 65.5023 66.006 66.7315 65.147 67.4914L60.0002 72.0448L54.8536 67.4914C53.9946 66.7315 53.696 65.5024 54.1109 64.4329C54.2679 63.9454 54.4426 63.7323 54.4426 63.3801V62.4854C57.8788 64.1989 61.9531 64.3078 65.5577 62.6083V63.3801C65.5577 63.6502 65.6427 63.7887 65.8898 64.4328ZM60.0002 74.6865L61.654 75.7198L60.8841 76.7728H59.1164L58.3465 75.7198L60.0002 74.6865ZM59.3321 78.8822H60.6685L61.8275 82.231C61.5406 82.6807 61.2327 83.1633 60.9007 83.6838C60.482 84.3454 59.5224 84.3515 59.098 83.6804C58.7667 83.1612 58.4595 82.6797 58.1732 82.231L59.3321 78.8822ZM72.3181 45.2541H71.1172C70.4987 45.2541 69.9329 44.7996 69.9329 44.1413V41.9227C70.7263 42.0789 71.5212 42.2537 72.3181 42.4476V45.2541ZM74.8012 48.7874V50.9169C74.8012 51.702 74.1623 52.3407 73.3772 52.3407H72.3877C72.425 51.6153 72.3948 52.5642 72.406 47.3635H73.3728C73.3735 47.3635 73.3742 47.3633 73.3751 47.3633C73.3759 47.3633 73.3765 47.3635 73.3773 47.3635C74.1623 47.3635 74.8012 48.0023 74.8012 48.7874ZM73.9003 36.347L73.1956 40.4904C64.4403 38.2991 55.8881 38.2812 47.0625 40.4903L46.3578 36.347C55.6222 33.8118 64.6355 33.8118 73.9003 36.347ZM46.881 52.3409C46.0959 52.3409 45.4571 51.7022 45.4571 50.9171V48.7876C45.4571 48.0025 46.0959 47.3636 46.881 47.3636H46.8854H47.856C47.8722 52.4368 47.8388 51.5386 47.8789 52.3409H46.881ZM47.9401 45.2541V42.4475C48.737 42.2536 49.532 42.0786 50.3254 41.9225C50.324 44.2894 50.3285 44.1509 50.3214 44.2427C50.2769 44.8098 49.7582 45.2541 49.1412 45.2541C49.1192 45.2541 47.8602 45.2541 47.9401 45.2541ZM49.9686 51.8502L49.9654 47.2573C51.2934 46.9194 52.3155 45.7903 52.4242 44.4086C52.4428 44.1742 52.4312 44.2641 52.4348 41.5513C57.5818 40.7528 62.6765 40.7528 67.8236 41.5514C67.8271 44.2334 67.8156 44.1751 67.8342 44.4082C67.943 45.7914 68.9669 46.9213 70.2968 47.2581C70.2972 53.442 70.2848 51.5229 70.2975 51.8986C69.9606 64.9552 50.2608 64.9921 49.9686 51.8502ZM49.4175 67.2353C50.1877 66.3709 51.0625 65.7315 51.8198 65.2801C51.7796 66.697 52.359 68.1007 53.456 69.0713L58.2369 73.3012C57.5915 73.7017 56.7345 74.2358 55.0792 75.2741C54.5348 75.6145 53.8281 75.4633 53.4703 74.9298L49.3158 68.7264C49.3132 68.7223 49.3105 68.7183 49.3078 68.7143C49.3075 68.7138 49.3073 68.7133 49.307 68.7129C49.0135 68.2719 49.0392 67.6599 49.4175 67.2353ZM57.4036 78.0044L56.7258 79.9629C55.9964 78.8197 55.4942 78.0328 55.1485 77.4912C55.8995 77.3263 56.314 76.9713 56.5527 76.8407L57.4036 78.0044ZM88.4712 90.619C88.4712 92.4231 87.0036 93.8906 85.1995 93.8906H79.725V86.6507C79.725 86.0681 79.2529 85.596 78.6703 85.596C78.0877 85.596 77.6156 86.0681 77.6156 86.6507V93.8906H42.3848V86.6507C42.3848 86.0681 41.9128 85.596 41.3302 85.596C40.7475 85.596 40.2755 86.0681 40.2755 86.6507V93.8906H34.8009C32.9969 93.8906 31.5293 92.4231 31.5293 90.619V88.1592C31.5293 80.3054 36.2899 73.3678 43.2912 70.3939L46.4578 75.4152C46.6583 75.7333 47.0007 75.9074 47.3509 75.9074C47.5431 75.9074 47.7379 75.8548 47.9125 75.7447C48.4051 75.434 48.5528 74.7827 48.242 74.2899L45.3239 69.6626C46.3222 69.3656 47.0069 69.2467 47.2063 69.2029C47.5866 70.2409 47.0827 68.77 57.3175 84.8116C58.5656 86.785 61.439 86.7787 62.6811 84.815C70.6987 72.2473 72.4311 69.8999 72.4451 69.8886C72.5881 69.6742 72.7175 69.4125 72.7943 69.2028C73.0109 69.2502 73.6469 69.3561 74.6767 69.6624L64.4268 85.9154C62.3892 89.1464 57.6107 89.1455 55.5738 85.9154L50.8731 78.4616C50.5625 77.9688 49.9111 77.8214 49.4183 78.1321C48.9257 78.4427 48.7781 79.0941 49.0889 79.5868L53.7895 87.0407C56.6549 91.584 63.3456 91.5841 66.2108 87.0407L76.7092 70.3935C83.7105 73.3674 88.471 80.305 88.471 88.1589V90.619H88.4712Z" fill="black"/>
</svg>
